# xmcd CD database file
#
# Track frame offsets:
#	150
#	11904
#	21746
#	37950
#	52414
#	61074
#	82780
#	92336
#	103612
#	125447
#	143293
#	161660
#
# Disc length: 2348 seconds
#
# Revision: 0
# Processed by: cddbd v1.5.1PL0 Copyright (c) Steve Scherf et al.
# Submitted via: CDex 1.51
#
DISCID=93092a0c
DTITLE=J.M.'s Home - FINAL FANTASY I-III SFC Style mix and OPERA // M3 Edition
DYEAR=2004
DGENRE=Game
TTITLE0=マトーヤの洞窟　〜ファイナルファンタジー  (SFC Version // from [マンボ de チョコボ] feat. FF5)
TTITLE1=船 (feat. FF5)　〜ファイナルファンタジー
TTITLE2=反乱軍のテーマ (feat. FF4)　〜ファイナルファンタジーII
TTITLE3=戦闘シーン２ (feat. FF4)　〜ファイナルファンタジーII
TTITLE4=飛行船（未使用曲） (feat. FF4)　〜ファイナルファンタジーII
TTITLE5=悠久の風 (feat. FF5)　〜ファイナルファンタジーIII
TTITLE6=禁断の地エウレカ (feat. FF5)　〜ファイナルファンタジーIII
TTITLE7=クリスタルタワー (feat. FF5)　〜ファイナルファンタジーIII
TTITLE8=序章 FINAL FANTASY VI [OPERA]
TTITLE9=アリア FINAL FANTASY VI [OPERA]
TTITLE10=婚礼のワルツ〜決闘 FINAL FANTASY VI [OPERA]
TTITLE11=大団円 FINAL FANTASY VI [OPERA]
EXTD=YEAR: 2004
EXTT0=
EXTT1=
EXTT2=
EXTT3=
EXTT4=
EXTT5=
EXTT6=
EXTT7=
EXTT8=
EXTT9=
EXTT10=
EXTT11=
PLAYORDER=
